<svg xmlns="http://www.w3.org/2000/svg" xmlns:xlink="http://www.w3.org/1999/xlink" width="377" zoomAndPan="magnify" viewBox="0 0 283.5 283.500005" height="377" preserveAspectRatio="xMidYMid meet" version="1.0"><defs><g/></defs><path fill="#ffffff" d="M 0 0 L 283 0 L 283 283 L 0 283 Z M 0 0 " fill-opacity="1" fill-rule="nonzero"/><path fill="#0a1128" d="M 0 0 L 283 0 L 283 283 L 0 283 Z M 0 0 " fill-opacity="1" fill-rule="nonzero"/><g fill="#ddfcad" fill-opacity="0.2706"><g transform="translate(5.448292, 212.528964)"><g><path d="M 114.125 -50.109375 C 114.125 -49.859375 113.941406 -46.953125 113.578125 -41.390625 L 40.453125 -41.390625 C 41.941406 -36.191406 44.816406 -32.195312 49.078125 -29.40625 C 53.347656 -26.625 58.703125 -25.234375 65.140625 -25.234375 C 69.960938 -25.234375 74.132812 -25.914062 77.65625 -27.28125 C 81.1875 -28.644531 84.742188 -30.867188 88.328125 -33.953125 L 106.890625 -14.65625 C 97.117188 -3.769531 82.832031 1.671875 64.03125 1.671875 C 52.269531 1.671875 41.9375 -0.550781 33.03125 -5 C 24.125 -9.457031 17.226562 -15.644531 12.34375 -23.5625 C 7.457031 -31.488281 5.015625 -40.460938 5.015625 -50.484375 C 5.015625 -60.378906 7.394531 -69.253906 12.15625 -77.109375 C 16.914062 -84.960938 23.5 -91.113281 31.90625 -95.5625 C 40.320312 -100.019531 49.789062 -102.25 60.3125 -102.25 C 70.332031 -102.25 79.425781 -100.175781 87.59375 -96.03125 C 95.757812 -91.882812 102.222656 -85.882812 106.984375 -78.03125 C 111.742188 -70.175781 114.125 -60.867188 114.125 -50.109375 Z M 60.5 -77.203125 C 55.050781 -77.203125 50.503906 -75.65625 46.859375 -72.5625 C 43.210938 -69.46875 40.894531 -65.257812 39.90625 -59.9375 L 81.09375 -59.9375 C 80.101562 -65.257812 77.78125 -69.46875 74.125 -72.5625 C 70.476562 -75.65625 65.9375 -77.203125 60.5 -77.203125 Z M 60.5 -77.203125 "/></g></g></g><g fill="#f6f5ae" fill-opacity="1"><g transform="translate(11.490571, 207.458891)"><g><path d="M 114.125 -50.109375 C 114.125 -49.859375 113.941406 -46.953125 113.578125 -41.390625 L 40.453125 -41.390625 C 41.941406 -36.191406 44.816406 -32.195312 49.078125 -29.40625 C 53.347656 -26.625 58.703125 -25.234375 65.140625 -25.234375 C 69.960938 -25.234375 74.132812 -25.914062 77.65625 -27.28125 C 81.1875 -28.644531 84.742188 -30.867188 88.328125 -33.953125 L 106.890625 -14.65625 C 97.117188 -3.769531 82.832031 1.671875 64.03125 1.671875 C 52.269531 1.671875 41.9375 -0.550781 33.03125 -5 C 24.125 -9.457031 17.226562 -15.644531 12.34375 -23.5625 C 7.457031 -31.488281 5.015625 -40.460938 5.015625 -50.484375 C 5.015625 -60.378906 7.394531 -69.253906 12.15625 -77.109375 C 16.914062 -84.960938 23.5 -91.113281 31.90625 -95.5625 C 40.320312 -100.019531 49.789062 -102.25 60.3125 -102.25 C 70.332031 -102.25 79.425781 -100.175781 87.59375 -96.03125 C 95.757812 -91.882812 102.222656 -85.882812 106.984375 -78.03125 C 111.742188 -70.175781 114.125 -60.867188 114.125 -50.109375 Z M 60.5 -77.203125 C 55.050781 -77.203125 50.503906 -75.65625 46.859375 -72.5625 C 43.210938 -69.46875 40.894531 -65.257812 39.90625 -59.9375 L 81.09375 -59.9375 C 80.101562 -65.257812 77.78125 -69.46875 74.125 -72.5625 C 70.476562 -75.65625 65.9375 -77.203125 60.5 -77.203125 Z M 60.5 -77.203125 "/></g></g></g><g fill="#f6f5ae" fill-opacity="0.3686"><g transform="translate(125.103572, 213.467603)"><g><path d="M 56.984375 -35.265625 L 46.578125 -24.6875 L 46.578125 0 L 11.328125 0 L 11.328125 -137.703125 L 46.578125 -137.703125 L 46.578125 -65.515625 L 82.59375 -100.59375 L 124.34375 -100.59375 L 82.59375 -57.53125 L 127.875 0 L 85.1875 0 Z M 56.984375 -35.265625 "/></g></g></g><g fill="#ddfcad" fill-opacity="1"><g transform="translate(131.145854, 208.397528)"><g><path d="M 56.984375 -35.265625 L 46.578125 -24.6875 L 46.578125 0 L 11.328125 0 L 11.328125 -137.703125 L 46.578125 -137.703125 L 46.578125 -65.515625 L 82.59375 -100.59375 L 124.34375 -100.59375 L 82.59375 -57.53125 L 127.875 0 L 85.1875 0 Z M 56.984375 -35.265625 "/></g></g></g></svg>