<svg xmlns="http://www.w3.org/2000/svg" xmlns:xlink="http://www.w3.org/1999/xlink" width="1080" zoomAndPan="magnify" viewBox="0 0 810 809.999993" height="1080" preserveAspectRatio="xMidYMid meet" version="1.0"><path fill="#ddfcad" d="M 403.695312 184.25 C 253.46875 184.25 115.210938 252.738281 24.382812 372.121094 C 10.21875 390.714844 10.21875 416.683594 24.371094 435.253906 C 115.210938 554.664062 253.46875 623.152344 403.695312 623.152344 C 553.921875 623.152344 692.179688 554.664062 783.007812 435.277344 C 797.171875 416.683594 797.171875 390.742188 783.019531 372.148438 C 692.179688 252.738281 553.921875 184.25 403.695312 184.25 Z M 741.644531 403.777344 C 660.714844 510.152344 537.539062 571.164062 403.695312 571.164062 C 269.855469 571.164062 146.675781 510.152344 65.75 403.625 C 146.675781 297.25 269.855469 236.238281 403.695312 236.238281 C 537.539062 236.238281 660.714844 297.25 741.644531 403.625 C 741.644531 403.636719 741.644531 403.761719 741.644531 403.777344 Z M 741.644531 403.777344 " fill-opacity="1" fill-rule="nonzero"/><path fill="#ddfcad" d="M 403.695312 251.53125 C 319.785156 251.53125 251.527344 319.789062 251.527344 403.699219 C 251.527344 487.609375 319.789062 555.867188 403.695312 555.867188 C 487.605469 555.867188 555.863281 487.609375 555.863281 403.699219 C 555.863281 319.789062 487.605469 251.53125 403.695312 251.53125 Z M 403.695312 503.878906 C 348.460938 503.878906 303.515625 458.9375 303.515625 403.699219 C 303.515625 348.460938 348.460938 303.519531 403.695312 303.519531 C 458.933594 303.519531 503.875 348.460938 503.875 403.699219 C 503.875 458.9375 458.933594 503.878906 403.695312 503.878906 Z M 403.695312 503.878906 " fill-opacity="1" fill-rule="nonzero"/></svg>