<svg xmlns="http://www.w3.org/2000/svg" xmlns:xlink="http://www.w3.org/1999/xlink" width="100" zoomAndPan="magnify" viewBox="0 0 75 41.25" height="55" preserveAspectRatio="xMidYMid meet" version="1.0"><defs><g/><clipPath id="abab0bd38c"><path d="M 9.273438 18 L 47.574219 18 L 47.574219 33 L 9.273438 33 Z M 9.273438 18 " clip-rule="nonzero"/></clipPath><clipPath id="3ae9b580be"><path d="M 47.664062 15.023438 L 64.605469 15.023438 L 64.605469 40.414062 L 47.664062 40.414062 Z M 47.664062 15.023438 " clip-rule="nonzero"/></clipPath></defs><g clip-path="url(#abab0bd38c)"><path fill="#ddfcad" d="M 45.996094 30.75 L 12.40625 30.75 C 11.570312 30.75 10.890625 30.074219 10.890625 29.238281 L 10.890625 21.757812 C 10.890625 20.921875 11.570312 20.242188 12.40625 20.242188 L 48.515625 20.242188 C 48.546875 20.230469 48.574219 20.21875 48.601562 20.207031 L 48.601562 18.625 L 12.40625 18.625 C 10.675781 18.625 9.273438 20.027344 9.273438 21.757812 L 9.273438 29.238281 C 9.273438 30.96875 10.675781 32.367188 12.40625 32.367188 L 45.996094 32.367188 L 45.996094 30.75 " fill-opacity="1" fill-rule="nonzero"/></g><path fill="#ddfcad" d="M 23.71875 23.820312 L 23.203125 22.960938 C 23.046875 22.699219 22.683594 22.648438 22.425781 22.789062 L 21.214844 23.480469 L 21.214844 22.269531 C 21.214844 21.925781 20.957031 21.664062 20.613281 21.664062 L 19.660156 21.664062 C 19.316406 21.664062 19.058594 21.925781 19.058594 22.269531 L 19.058594 23.480469 L 17.847656 22.789062 C 17.589844 22.648438 17.226562 22.699219 17.074219 22.960938 L 16.554688 23.820312 C 16.378906 24.101562 16.464844 24.445312 16.726562 24.601562 L 17.933594 25.289062 L 16.726562 25.984375 C 16.464844 26.136719 16.398438 26.503906 16.554688 26.757812 L 17.074219 27.625 C 17.246094 27.882812 17.589844 27.953125 17.847656 27.796875 L 19.058594 27.105469 L 19.058594 28.3125 C 19.058594 28.660156 19.316406 28.917969 19.660156 28.917969 L 20.613281 28.917969 C 20.957031 28.917969 21.214844 28.660156 21.214844 28.3125 L 21.214844 27.105469 L 22.425781 27.796875 C 22.683594 27.953125 23.03125 27.882812 23.203125 27.625 L 23.71875 26.757812 C 23.875 26.503906 23.804688 26.136719 23.546875 25.984375 L 22.335938 25.289062 L 23.546875 24.601562 C 23.804688 24.445312 23.890625 24.101562 23.71875 23.820312 " fill-opacity="1" fill-rule="nonzero"/><path fill="#ddfcad" d="M 34.027344 23.820312 L 33.507812 22.960938 C 33.355469 22.699219 32.992188 22.648438 32.734375 22.789062 L 31.527344 23.480469 L 31.527344 22.269531 C 31.527344 21.925781 31.265625 21.664062 30.921875 21.664062 L 29.972656 21.664062 C 29.625 21.664062 29.367188 21.925781 29.367188 22.269531 L 29.367188 23.480469 L 28.15625 22.789062 C 27.898438 22.648438 27.539062 22.699219 27.378906 22.960938 L 26.863281 23.820312 C 26.691406 24.101562 26.777344 24.445312 27.035156 24.601562 L 28.246094 25.289062 L 27.035156 25.984375 C 26.777344 26.136719 26.707031 26.503906 26.863281 26.757812 L 27.378906 27.625 C 27.550781 27.882812 27.898438 27.953125 28.15625 27.796875 L 29.367188 27.105469 L 29.367188 28.3125 C 29.367188 28.660156 29.625 28.917969 29.972656 28.917969 L 30.921875 28.917969 C 31.265625 28.917969 31.527344 28.660156 31.527344 28.3125 L 31.527344 27.105469 L 32.734375 27.796875 C 32.992188 27.953125 33.335938 27.882812 33.507812 27.625 L 34.027344 26.757812 C 34.183594 26.503906 34.117188 26.136719 33.855469 25.984375 L 32.648438 25.289062 L 33.855469 24.601562 C 34.117188 24.445312 34.203125 24.101562 34.027344 23.820312 " fill-opacity="1" fill-rule="nonzero"/><path fill="#ddfcad" d="M 44.335938 23.820312 L 43.820312 22.960938 C 43.664062 22.699219 43.300781 22.648438 43.039062 22.789062 L 41.832031 23.480469 L 41.832031 22.269531 C 41.832031 21.925781 41.574219 21.664062 41.226562 21.664062 L 40.277344 21.664062 C 39.933594 21.664062 39.675781 21.925781 39.675781 22.269531 L 39.675781 23.480469 L 38.464844 22.789062 C 38.207031 22.648438 37.84375 22.699219 37.6875 22.960938 L 37.167969 23.820312 C 36.996094 24.101562 37.082031 24.445312 37.34375 24.601562 L 38.550781 25.289062 L 37.34375 25.984375 C 37.082031 26.136719 37.015625 26.503906 37.167969 26.757812 L 37.6875 27.625 C 37.863281 27.882812 38.207031 27.953125 38.464844 27.796875 L 39.675781 27.105469 L 39.675781 28.3125 C 39.675781 28.660156 39.933594 28.917969 40.277344 28.917969 L 41.226562 28.917969 C 41.574219 28.917969 41.832031 28.660156 41.832031 28.3125 L 41.832031 27.105469 L 43.039062 27.796875 C 43.300781 27.953125 43.648438 27.882812 43.820312 27.625 L 44.335938 26.757812 C 44.488281 26.503906 44.421875 26.136719 44.160156 25.984375 L 42.953125 25.289062 L 44.160156 24.601562 C 44.421875 24.445312 44.507812 24.101562 44.335938 23.820312 " fill-opacity="1" fill-rule="nonzero"/><g clip-path="url(#3ae9b580be)"><path fill="#f6f5ae" d="M 54 37.996094 L 54.855469 32.148438 C 54.296875 31.851562 53.917969 31.265625 53.917969 30.582031 C 53.917969 29.605469 54.710938 28.8125 55.691406 28.8125 C 56.667969 28.8125 57.460938 29.605469 57.460938 30.582031 C 57.460938 31.265625 57.082031 31.851562 56.523438 32.148438 L 57.375 37.996094 Z M 59.671875 21.5625 L 59.671875 26.105469 L 51.742188 26.105469 L 51.742188 21.5625 C 51.742188 19.378906 53.519531 17.597656 55.707031 17.597656 C 57.890625 17.597656 59.671875 19.378906 59.671875 21.5625 Z M 63.066406 26.105469 L 62.246094 26.105469 L 62.246094 21.5625 C 62.246094 17.957031 59.3125 15.023438 55.707031 15.023438 C 52.097656 15.023438 49.164062 17.957031 49.164062 21.5625 L 49.164062 26.105469 L 48.34375 26.105469 C 47.90625 26.105469 47.511719 26.285156 47.226562 26.570312 C 47.117188 26.675781 47.027344 26.800781 46.953125 26.933594 C 46.832031 27.160156 46.765625 27.414062 46.765625 27.6875 L 46.765625 38.832031 C 46.765625 39.105469 46.832031 39.363281 46.953125 39.585938 C 47.027344 39.71875 47.117188 39.84375 47.226562 39.949219 C 47.511719 40.238281 47.90625 40.414062 48.34375 40.414062 L 63.066406 40.414062 C 63.9375 40.414062 64.648438 39.707031 64.648438 38.832031 L 64.648438 27.6875 C 64.648438 26.8125 63.9375 26.105469 63.066406 26.105469 " fill-opacity="1" fill-rule="nonzero"/></g><g fill="#ddfcad" fill-opacity="0.2706"><g transform="translate(2.943246, 17.279505)"><g><path d="M 10.46875 -4.59375 C 10.46875 -4.570312 10.453125 -4.304688 10.421875 -3.796875 L 3.71875 -3.796875 C 3.851562 -3.316406 4.113281 -2.945312 4.5 -2.6875 C 4.894531 -2.4375 5.390625 -2.3125 5.984375 -2.3125 C 6.421875 -2.3125 6.800781 -2.375 7.125 -2.5 C 7.445312 -2.625 7.773438 -2.828125 8.109375 -3.109375 L 9.8125 -1.34375 C 8.914062 -0.34375 7.601562 0.15625 5.875 0.15625 C 4.789062 0.15625 3.84375 -0.046875 3.03125 -0.453125 C 2.21875 -0.867188 1.582031 -1.4375 1.125 -2.15625 C 0.675781 -2.882812 0.453125 -3.707031 0.453125 -4.625 C 0.453125 -5.539062 0.671875 -6.359375 1.109375 -7.078125 C 1.546875 -7.796875 2.148438 -8.359375 2.921875 -8.765625 C 3.703125 -9.179688 4.570312 -9.390625 5.53125 -9.390625 C 6.457031 -9.390625 7.289062 -9.195312 8.03125 -8.8125 C 8.78125 -8.4375 9.375 -7.882812 9.8125 -7.15625 C 10.25 -6.4375 10.46875 -5.582031 10.46875 -4.59375 Z M 5.546875 -7.078125 C 5.046875 -7.078125 4.628906 -6.9375 4.296875 -6.65625 C 3.960938 -6.375 3.75 -5.988281 3.65625 -5.5 L 7.4375 -5.5 C 7.351562 -5.988281 7.140625 -6.375 6.796875 -6.65625 C 6.460938 -6.9375 6.046875 -7.078125 5.546875 -7.078125 Z M 5.546875 -7.078125 "/></g></g></g><g fill="#ddfcad" fill-opacity="0.2706"><g transform="translate(13.006125, 17.279505)"><g><path d="M 1.03125 -12.640625 L 4.28125 -12.640625 L 4.28125 0 L 1.03125 0 Z M 1.03125 -12.640625 "/></g></g></g><g fill="#ddfcad" fill-opacity="0.2706"><g transform="translate(17.467079, 17.279505)"><g><path d="M 1.03125 -9.234375 L 4.28125 -9.234375 L 4.28125 0 L 1.03125 0 Z M 2.65625 -10.25 C 2.0625 -10.25 1.582031 -10.410156 1.21875 -10.734375 C 0.863281 -11.066406 0.6875 -11.476562 0.6875 -11.96875 C 0.6875 -12.457031 0.863281 -12.863281 1.21875 -13.1875 C 1.582031 -13.519531 2.0625 -13.6875 2.65625 -13.6875 C 3.25 -13.6875 3.722656 -13.53125 4.078125 -13.21875 C 4.441406 -12.90625 4.625 -12.507812 4.625 -12.03125 C 4.625 -11.507812 4.441406 -11.082031 4.078125 -10.75 C 3.722656 -10.414062 3.25 -10.25 2.65625 -10.25 Z M 2.65625 -10.25 "/></g></g></g><g fill="#ddfcad" fill-opacity="0.2706"><g transform="translate(21.928033, 17.279505)"><g><path d="M 7.40625 -0.375 C 7.132812 -0.207031 6.800781 -0.078125 6.40625 0.015625 C 6.019531 0.109375 5.601562 0.15625 5.15625 0.15625 C 3.957031 0.15625 3.03125 -0.140625 2.375 -0.734375 C 1.726562 -1.328125 1.40625 -2.207031 1.40625 -3.375 L 1.40625 -6.46875 L 0.0625 -6.46875 L 0.0625 -8.890625 L 1.40625 -8.890625 L 1.40625 -11.296875 L 4.65625 -11.296875 L 4.65625 -8.890625 L 6.765625 -8.890625 L 6.765625 -6.46875 L 4.65625 -6.46875 L 4.65625 -3.40625 C 4.65625 -3.070312 4.738281 -2.8125 4.90625 -2.625 C 5.082031 -2.4375 5.320312 -2.34375 5.625 -2.34375 C 6 -2.34375 6.328125 -2.441406 6.609375 -2.640625 Z M 7.40625 -0.375 "/></g></g></g><g fill="#ddfcad" fill-opacity="0.2706"><g transform="translate(28.670623, 17.279505)"><g><path d="M 10.46875 -4.59375 C 10.46875 -4.570312 10.453125 -4.304688 10.421875 -3.796875 L 3.71875 -3.796875 C 3.851562 -3.316406 4.113281 -2.945312 4.5 -2.6875 C 4.894531 -2.4375 5.390625 -2.3125 5.984375 -2.3125 C 6.421875 -2.3125 6.800781 -2.375 7.125 -2.5 C 7.445312 -2.625 7.773438 -2.828125 8.109375 -3.109375 L 9.8125 -1.34375 C 8.914062 -0.34375 7.601562 0.15625 5.875 0.15625 C 4.789062 0.15625 3.84375 -0.046875 3.03125 -0.453125 C 2.21875 -0.867188 1.582031 -1.4375 1.125 -2.15625 C 0.675781 -2.882812 0.453125 -3.707031 0.453125 -4.625 C 0.453125 -5.539062 0.671875 -6.359375 1.109375 -7.078125 C 1.546875 -7.796875 2.148438 -8.359375 2.921875 -8.765625 C 3.703125 -9.179688 4.570312 -9.390625 5.53125 -9.390625 C 6.457031 -9.390625 7.289062 -9.195312 8.03125 -8.8125 C 8.78125 -8.4375 9.375 -7.882812 9.8125 -7.15625 C 10.25 -6.4375 10.46875 -5.582031 10.46875 -4.59375 Z M 5.546875 -7.078125 C 5.046875 -7.078125 4.628906 -6.9375 4.296875 -6.65625 C 3.960938 -6.375 3.75 -5.988281 3.65625 -5.5 L 7.4375 -5.5 C 7.351562 -5.988281 7.140625 -6.375 6.796875 -6.65625 C 6.460938 -6.9375 6.046875 -7.078125 5.546875 -7.078125 Z M 5.546875 -7.078125 "/></g></g></g><g fill="#f6f5ae" fill-opacity="1"><g transform="translate(3.497697, 16.814265)"><g><path d="M 10.46875 -4.59375 C 10.46875 -4.570312 10.453125 -4.304688 10.421875 -3.796875 L 3.71875 -3.796875 C 3.851562 -3.316406 4.113281 -2.945312 4.5 -2.6875 C 4.894531 -2.4375 5.390625 -2.3125 5.984375 -2.3125 C 6.421875 -2.3125 6.800781 -2.375 7.125 -2.5 C 7.445312 -2.625 7.773438 -2.828125 8.109375 -3.109375 L 9.8125 -1.34375 C 8.914062 -0.34375 7.601562 0.15625 5.875 0.15625 C 4.789062 0.15625 3.84375 -0.046875 3.03125 -0.453125 C 2.21875 -0.867188 1.582031 -1.4375 1.125 -2.15625 C 0.675781 -2.882812 0.453125 -3.707031 0.453125 -4.625 C 0.453125 -5.539062 0.671875 -6.359375 1.109375 -7.078125 C 1.546875 -7.796875 2.148438 -8.359375 2.921875 -8.765625 C 3.703125 -9.179688 4.570312 -9.390625 5.53125 -9.390625 C 6.457031 -9.390625 7.289062 -9.195312 8.03125 -8.8125 C 8.78125 -8.4375 9.375 -7.882812 9.8125 -7.15625 C 10.25 -6.4375 10.46875 -5.582031 10.46875 -4.59375 Z M 5.546875 -7.078125 C 5.046875 -7.078125 4.628906 -6.9375 4.296875 -6.65625 C 3.960938 -6.375 3.75 -5.988281 3.65625 -5.5 L 7.4375 -5.5 C 7.351562 -5.988281 7.140625 -6.375 6.796875 -6.65625 C 6.460938 -6.9375 6.046875 -7.078125 5.546875 -7.078125 Z M 5.546875 -7.078125 "/></g></g></g><g fill="#f6f5ae" fill-opacity="1"><g transform="translate(13.560575, 16.814265)"><g><path d="M 1.03125 -12.640625 L 4.28125 -12.640625 L 4.28125 0 L 1.03125 0 Z M 1.03125 -12.640625 "/></g></g></g><g fill="#f6f5ae" fill-opacity="1"><g transform="translate(18.021529, 16.814265)"><g><path d="M 1.03125 -9.234375 L 4.28125 -9.234375 L 4.28125 0 L 1.03125 0 Z M 2.65625 -10.25 C 2.0625 -10.25 1.582031 -10.410156 1.21875 -10.734375 C 0.863281 -11.066406 0.6875 -11.476562 0.6875 -11.96875 C 0.6875 -12.457031 0.863281 -12.863281 1.21875 -13.1875 C 1.582031 -13.519531 2.0625 -13.6875 2.65625 -13.6875 C 3.25 -13.6875 3.722656 -13.53125 4.078125 -13.21875 C 4.441406 -12.90625 4.625 -12.507812 4.625 -12.03125 C 4.625 -11.507812 4.441406 -11.082031 4.078125 -10.75 C 3.722656 -10.414062 3.25 -10.25 2.65625 -10.25 Z M 2.65625 -10.25 "/></g></g></g><g fill="#f6f5ae" fill-opacity="1"><g transform="translate(22.482484, 16.814265)"><g><path d="M 7.40625 -0.375 C 7.132812 -0.207031 6.800781 -0.078125 6.40625 0.015625 C 6.019531 0.109375 5.601562 0.15625 5.15625 0.15625 C 3.957031 0.15625 3.03125 -0.140625 2.375 -0.734375 C 1.726562 -1.328125 1.40625 -2.207031 1.40625 -3.375 L 1.40625 -6.46875 L 0.0625 -6.46875 L 0.0625 -8.890625 L 1.40625 -8.890625 L 1.40625 -11.296875 L 4.65625 -11.296875 L 4.65625 -8.890625 L 6.765625 -8.890625 L 6.765625 -6.46875 L 4.65625 -6.46875 L 4.65625 -3.40625 C 4.65625 -3.070312 4.738281 -2.8125 4.90625 -2.625 C 5.082031 -2.4375 5.320312 -2.34375 5.625 -2.34375 C 6 -2.34375 6.328125 -2.441406 6.609375 -2.640625 Z M 7.40625 -0.375 "/></g></g></g><g fill="#f6f5ae" fill-opacity="1"><g transform="translate(29.225073, 16.814265)"><g><path d="M 10.46875 -4.59375 C 10.46875 -4.570312 10.453125 -4.304688 10.421875 -3.796875 L 3.71875 -3.796875 C 3.851562 -3.316406 4.113281 -2.945312 4.5 -2.6875 C 4.894531 -2.4375 5.390625 -2.3125 5.984375 -2.3125 C 6.421875 -2.3125 6.800781 -2.375 7.125 -2.5 C 7.445312 -2.625 7.773438 -2.828125 8.109375 -3.109375 L 9.8125 -1.34375 C 8.914062 -0.34375 7.601562 0.15625 5.875 0.15625 C 4.789062 0.15625 3.84375 -0.046875 3.03125 -0.453125 C 2.21875 -0.867188 1.582031 -1.4375 1.125 -2.15625 C 0.675781 -2.882812 0.453125 -3.707031 0.453125 -4.625 C 0.453125 -5.539062 0.671875 -6.359375 1.109375 -7.078125 C 1.546875 -7.796875 2.148438 -8.359375 2.921875 -8.765625 C 3.703125 -9.179688 4.570312 -9.390625 5.53125 -9.390625 C 6.457031 -9.390625 7.289062 -9.195312 8.03125 -8.8125 C 8.78125 -8.4375 9.375 -7.882812 9.8125 -7.15625 C 10.25 -6.4375 10.46875 -5.582031 10.46875 -4.59375 Z M 5.546875 -7.078125 C 5.046875 -7.078125 4.628906 -6.9375 4.296875 -6.65625 C 3.960938 -6.375 3.75 -5.988281 3.65625 -5.5 L 7.4375 -5.5 C 7.351562 -5.988281 7.140625 -6.375 6.796875 -6.65625 C 6.460938 -6.9375 6.046875 -7.078125 5.546875 -7.078125 Z M 5.546875 -7.078125 "/></g></g></g><g fill="#f6f5ae" fill-opacity="0.3686"><g transform="translate(39.943907, 17.249631)"><g><path d="M 5.234375 -3.234375 L 4.28125 -2.265625 L 4.28125 0 L 1.03125 0 L 1.03125 -12.640625 L 4.28125 -12.640625 L 4.28125 -6.015625 L 7.578125 -9.234375 L 11.40625 -9.234375 L 7.578125 -5.28125 L 11.734375 0 L 7.8125 0 Z M 5.234375 -3.234375 "/></g></g></g><g fill="#f6f5ae" fill-opacity="0.3686"><g transform="translate(49.889566, 17.249631)"><g><path d="M 10.46875 -4.59375 C 10.46875 -4.570312 10.453125 -4.304688 10.421875 -3.796875 L 3.71875 -3.796875 C 3.851562 -3.316406 4.113281 -2.945312 4.5 -2.6875 C 4.894531 -2.4375 5.390625 -2.3125 5.984375 -2.3125 C 6.421875 -2.3125 6.800781 -2.375 7.125 -2.5 C 7.445312 -2.625 7.773438 -2.828125 8.109375 -3.109375 L 9.8125 -1.34375 C 8.914062 -0.34375 7.601562 0.15625 5.875 0.15625 C 4.789062 0.15625 3.84375 -0.046875 3.03125 -0.453125 C 2.21875 -0.867188 1.582031 -1.4375 1.125 -2.15625 C 0.675781 -2.882812 0.453125 -3.707031 0.453125 -4.625 C 0.453125 -5.539062 0.671875 -6.359375 1.109375 -7.078125 C 1.546875 -7.796875 2.148438 -8.359375 2.921875 -8.765625 C 3.703125 -9.179688 4.570312 -9.390625 5.53125 -9.390625 C 6.457031 -9.390625 7.289062 -9.195312 8.03125 -8.8125 C 8.78125 -8.4375 9.375 -7.882812 9.8125 -7.15625 C 10.25 -6.4375 10.46875 -5.582031 10.46875 -4.59375 Z M 5.546875 -7.078125 C 5.046875 -7.078125 4.628906 -6.9375 4.296875 -6.65625 C 3.960938 -6.375 3.75 -5.988281 3.65625 -5.5 L 7.4375 -5.5 C 7.351562 -5.988281 7.140625 -6.375 6.796875 -6.65625 C 6.460938 -6.9375 6.046875 -7.078125 5.546875 -7.078125 Z M 5.546875 -7.078125 "/></g></g></g><g fill="#f6f5ae" fill-opacity="0.3686"><g transform="translate(59.085892, 17.249631)"><g><path d="M 10.765625 -9.234375 L 6.78125 0.375 C 6.3125 1.507812 5.742188 2.304688 5.078125 2.765625 C 4.410156 3.222656 3.59375 3.453125 2.625 3.453125 C 2.132812 3.453125 1.640625 3.375 1.140625 3.21875 C 0.648438 3.070312 0.253906 2.875 -0.046875 2.625 L 1.078125 0.359375 C 1.253906 0.523438 1.46875 0.65625 1.71875 0.75 C 1.976562 0.851562 2.238281 0.90625 2.5 0.90625 C 2.8125 0.90625 3.066406 0.84375 3.265625 0.71875 C 3.460938 0.59375 3.628906 0.394531 3.765625 0.125 L -0.1875 -9.234375 L 3.140625 -9.234375 L 5.40625 -3.59375 L 7.6875 -9.234375 Z M 10.765625 -9.234375 "/></g></g></g><g fill="#ddfcad" fill-opacity="1"><g transform="translate(40.498359, 16.784392)"><g><path d="M 5.234375 -3.234375 L 4.28125 -2.265625 L 4.28125 0 L 1.03125 0 L 1.03125 -12.640625 L 4.28125 -12.640625 L 4.28125 -6.015625 L 7.578125 -9.234375 L 11.40625 -9.234375 L 7.578125 -5.28125 L 11.734375 0 L 7.8125 0 Z M 5.234375 -3.234375 "/></g></g></g><g fill="#ddfcad" fill-opacity="1"><g transform="translate(50.444017, 16.784392)"><g><path d="M 10.46875 -4.59375 C 10.46875 -4.570312 10.453125 -4.304688 10.421875 -3.796875 L 3.71875 -3.796875 C 3.851562 -3.316406 4.113281 -2.945312 4.5 -2.6875 C 4.894531 -2.4375 5.390625 -2.3125 5.984375 -2.3125 C 6.421875 -2.3125 6.800781 -2.375 7.125 -2.5 C 7.445312 -2.625 7.773438 -2.828125 8.109375 -3.109375 L 9.8125 -1.34375 C 8.914062 -0.34375 7.601562 0.15625 5.875 0.15625 C 4.789062 0.15625 3.84375 -0.046875 3.03125 -0.453125 C 2.21875 -0.867188 1.582031 -1.4375 1.125 -2.15625 C 0.675781 -2.882812 0.453125 -3.707031 0.453125 -4.625 C 0.453125 -5.539062 0.671875 -6.359375 1.109375 -7.078125 C 1.546875 -7.796875 2.148438 -8.359375 2.921875 -8.765625 C 3.703125 -9.179688 4.570312 -9.390625 5.53125 -9.390625 C 6.457031 -9.390625 7.289062 -9.195312 8.03125 -8.8125 C 8.78125 -8.4375 9.375 -7.882812 9.8125 -7.15625 C 10.25 -6.4375 10.46875 -5.582031 10.46875 -4.59375 Z M 5.546875 -7.078125 C 5.046875 -7.078125 4.628906 -6.9375 4.296875 -6.65625 C 3.960938 -6.375 3.75 -5.988281 3.65625 -5.5 L 7.4375 -5.5 C 7.351562 -5.988281 7.140625 -6.375 6.796875 -6.65625 C 6.460938 -6.9375 6.046875 -7.078125 5.546875 -7.078125 Z M 5.546875 -7.078125 "/></g></g></g><g fill="#ddfcad" fill-opacity="1"><g transform="translate(59.640344, 16.784392)"><g><path d="M 10.765625 -9.234375 L 6.78125 0.375 C 6.3125 1.507812 5.742188 2.304688 5.078125 2.765625 C 4.410156 3.222656 3.59375 3.453125 2.625 3.453125 C 2.132812 3.453125 1.640625 3.375 1.140625 3.21875 C 0.648438 3.070312 0.253906 2.875 -0.046875 2.625 L 1.078125 0.359375 C 1.253906 0.523438 1.46875 0.65625 1.71875 0.75 C 1.976562 0.851562 2.238281 0.90625 2.5 0.90625 C 2.8125 0.90625 3.066406 0.84375 3.265625 0.71875 C 3.460938 0.59375 3.628906 0.394531 3.765625 0.125 L -0.1875 -9.234375 L 3.140625 -9.234375 L 5.40625 -3.59375 L 7.6875 -9.234375 Z M 10.765625 -9.234375 "/></g></g></g></svg>